{
    "asset" : {
        "generator" : "Khronos glTF Blender I/O v1.4.40",
        "version" : "2.0"
    },
    "scene" : 0,
    "scenes" : [
        {
            "name" : "Scene",
            "nodes" : [
                0
            ]
        }
    ],
    "nodes" : [
        {
            "mesh" : 0,
            "name" : "12262_Crocodile_v1_l2",
            "rotation" : [
                0,
                0.7071067690849304,
                0,
                0.7071067690849304
            ],
            "scale" : [
                0.019999999552965164,
                0.019999999552965164,
                0.019999999552965164
            ]
        }
    ],
    "materials" : [
        {
            "doubleSided" : true,
            "name" : "14___Default",
            "pbrMetallicRoughness" : {
                "baseColorTexture" : {
                    "index" : 0,
                    "texCoord" : 0
                },
                "metallicFactor" : 0,
                "roughnessFactor" : 0.8333333134651184
            }
        }
    ],
    "meshes" : [
        {
            "name" : "12262_Crocodile_v1_l2",
            "primitives" : [
                {
                    "attributes" : {
                        "POSITION" : 0,
                        "NORMAL" : 1,
                        "TEXCOORD_0" : 2
                    },
                    "indices" : 3,
                    "material" : 0
                }
            ]
        }
    ],
    "textures" : [
        {
            "sampler" : 0,
            "source" : 0
        }
    ],
    "images" : [
        {
            "bufferView" : 4,
            "mimeType" : "image/jpeg",
            "name" : "12262_Crocodile_diff"
        }
    ],
    "accessors" : [
        {
            "bufferView" : 0,
            "componentType" : 5126,
            "count" : 47693,
            "max" : [
                137.79710388183594,
                23.652599334716797,
                35.44419860839844
            ],
            "min" : [
                -95.81890106201172,
                0.016899999231100082,
                -35.44459915161133
            ],
            "type" : "VEC3"
        },
        {
            "bufferView" : 1,
            "componentType" : 5126,
            "count" : 47693,
            "type" : "VEC3"
        },
        {
            "bufferView" : 2,
            "componentType" : 5126,
            "count" : 47693,
            "type" : "VEC2"
        },
        {
            "bufferView" : 3,
            "componentType" : 5123,
            "count" : 271392,
            "type" : "SCALAR"
        }
    ],
    "bufferViews" : [
        {
            "buffer" : 0,
            "byteLength" : 572316,
            "byteOffset" : 0
        },
        {
            "buffer" : 0,
            "byteLength" : 572316,
            "byteOffset" : 572316
        },
        {
            "buffer" : 0,
            "byteLength" : 381544,
            "byteOffset" : 1144632
        },
        {
            "buffer" : 0,
            "byteLength" : 542784,
            "byteOffset" : 1526176
        },
        {
            "buffer" : 0,
            "byteLength" : 973102,
            "byteOffset" : 2068960
        }
    ],
    "samplers" : [
        {
            "magFilter" : 9729,
            "minFilter" : 9986
        }
    ],
    "buffers" : [
        {
            "byteLength" : 3042064,
            "uri" : "data:application/octet-stream;base64,"
        }
    ]
}
