{
    "asset" : {
        "generator" : "Khronos glTF Blender I/O v1.4.40",
        "version" : "2.0"
    },
    "scene" : 0,
    "scenes" : [
        {
            "name" : "Scene",
            "nodes" : [
                0
            ]
        }
    ],
    "nodes" : [
        {
            "mesh" : 0,
            "name" : "BEAR_BLK",
            "rotation" : [
                0.7071067690849304,
                0,
                0,
                0.7071067690849304
            ],
            "scale" : [
                0.800000011920929,
                0.800000011920929,
                0.800000011920929
            ]
        }
    ],
    "materials" : [
        {
            "doubleSided" : true,
            "name" : "Default OBJ.001",
            "pbrMetallicRoughness" : {
                "baseColorFactor" : [
                    0.800000011920929,
                    0.800000011920929,
                    0.800000011920929,
                    1
                ],
                "metallicFactor" : 0,
                "roughnessFactor" : 0.5
            }
        }
    ],
    "meshes" : [
        {
            "name" : "BEAR_BLK",
            "primitives" : [
                {
                    "attributes" : {
                        "POSITION" : 0,
                        "NORMAL" : 1,
                        "TEXCOORD_0" : 2
                    },
                    "indices" : 3,
                    "material" : 0
                }
            ]
        }
    ],
    "accessors" : [
        {
            "bufferView" : 0,
            "componentType" : 5126,
            "count" : 3990,
            "max" : [
                0.5637770295143127,
                0.7210609912872314,
                0.0028793099336326122
            ],
            "min" : [
                -0.5637770295143127,
                -0.308663010597229,
                -2.2925798892974854
            ],
            "type" : "VEC3"
        },
        {
            "bufferView" : 1,
            "componentType" : 5126,
            "count" : 3990,
            "type" : "VEC3"
        },
        {
            "bufferView" : 2,
            "componentType" : 5126,
            "count" : 3990,
            "type" : "VEC2"
        },
        {
            "bufferView" : 3,
            "componentType" : 5123,
            "count" : 23400,
            "type" : "SCALAR"
        }
    ],
    "bufferViews" : [
        {
            "buffer" : 0,
            "byteLength" : 47880,
            "byteOffset" : 0
        },
        {
            "buffer" : 0,
            "byteLength" : 47880,
            "byteOffset" : 47880
        },
        {
            "buffer" : 0,
            "byteLength" : 31920,
            "byteOffset" : 95760
        },
        {
            "buffer" : 0,
            "byteLength" : 46800,
            "byteOffset" : 127680
        }
    ],
    "buffers" : [
        {
            "byteLength" : 174480,
            "uri" : "data:application/octet-stream;base64,"
        }
    ]
}
