{
    "asset" : {
        "generator" : "Khronos glTF Blender I/O v1.4.40",
        "version" : "2.0"
    },
    "scene" : 0,
    "scenes" : [
        {
            "name" : "Scene",
            "nodes" : [
                0
            ]
        }
    ],
    "nodes" : [
        {
            "mesh" : 0,
            "name" : "12221_Cat_v1_l3",
            "scale" : [
                0.03999999910593033,
                0.03999999910593033,
                0.03999999910593033
            ]
        }
    ],
    "materials" : [
        {
            "doubleSided" : true,
            "name" : "Cat",
            "normalTexture" : {
                "index" : 0,
                "texCoord" : 0
            },
            "pbrMetallicRoughness" : {
                "baseColorTexture" : {
                    "index" : 1,
                    "texCoord" : 0
                },
                "metallicFactor" : 0,
                "roughnessFactor" : 0.8945907354354858
            }
        }
    ],
    "meshes" : [
        {
            "name" : "12221_Cat_v1_l3",
            "primitives" : [
                {
                    "attributes" : {
                        "POSITION" : 0,
                        "NORMAL" : 1,
                        "TEXCOORD_0" : 2
                    },
                    "indices" : 3,
                    "material" : 0
                }
            ]
        }
    ],
    "textures" : [
        {
            "sampler" : 0,
            "source" : 0
        },
        {
            "sampler" : 0,
            "source" : 1
        }
    ],
    "images" : [
        {
            "bufferView" : 4,
            "mimeType" : "image/jpeg",
            "name" : "Cat_bump"
        },
        {
            "bufferView" : 5,
            "mimeType" : "image/jpeg",
            "name" : "Cat_diffuse"
        }
    ],
    "accessors" : [
        {
            "bufferView" : 0,
            "componentType" : 5126,
            "count" : 36530,
            "max" : [
                6.277599811553955,
                37.61259841918945,
                22.255399703979492
            ],
            "min" : [
                -6.277599811553955,
                0.0052999998442828655,
                -38.627899169921875
            ],
            "type" : "VEC3"
        },
        {
            "bufferView" : 1,
            "componentType" : 5126,
            "count" : 36530,
            "type" : "VEC3"
        },
        {
            "bufferView" : 2,
            "componentType" : 5126,
            "count" : 36530,
            "type" : "VEC2"
        },
        {
            "bufferView" : 3,
            "componentType" : 5123,
            "count" : 211728,
            "type" : "SCALAR"
        }
    ],
    "bufferViews" : [
        {
            "buffer" : 0,
            "byteLength" : 438360,
            "byteOffset" : 0
        },
        {
            "buffer" : 0,
            "byteLength" : 438360,
            "byteOffset" : 438360
        },
        {
            "buffer" : 0,
            "byteLength" : 292240,
            "byteOffset" : 876720
        },
        {
            "buffer" : 0,
            "byteLength" : 423456,
            "byteOffset" : 1168960
        },
        {
            "buffer" : 0,
            "byteLength" : 567892,
            "byteOffset" : 1592416
        },
        {
            "buffer" : 0,
            "byteLength" : 346865,
            "byteOffset" : 2160308
        }
    ],
    "samplers" : [
        {
            "magFilter" : 9729,
            "minFilter" : 9986
        }
    ],
    "buffers" : [
        {
            "byteLength" : 2507176,
            "uri" : "data:application/octet-stream;base64,"
        }
    ]
}
