{
    "asset" : {
        "generator" : "Khronos glTF Blender I/O v1.4.40",
        "version" : "2.0"
    },
    "scene" : 0,
    "scenes" : [
        {
            "name" : "Scene",
            "nodes" : [
                0
            ]
        }
    ],
    "nodes" : [
        {
            "mesh" : 0,
            "name" : "12248_Bird_v1_L2",
            "scale" : [
                0.02500000037252903,
                0.02500000037252903,
                0.02500000037252903
            ]
        }
    ],
    "materials" : [
        {
            "doubleSided" : true,
            "name" : "12248_Bird_v1.001",
            "pbrMetallicRoughness" : {
                "baseColorTexture" : {
                    "index" : 0,
                    "texCoord" : 0
                },
                "metallicFactor" : 0,
                "roughnessFactor" : 0.8236165642738342
            }
        }
    ],
    "meshes" : [
        {
            "name" : "12248_Bird_v1_L2.001",
            "primitives" : [
                {
                    "attributes" : {
                        "POSITION" : 0,
                        "NORMAL" : 1,
                        "TEXCOORD_0" : 2
                    },
                    "indices" : 3,
                    "material" : 0
                }
            ]
        }
    ],
    "textures" : [
        {
            "sampler" : 0,
            "source" : 0
        }
    ],
    "images" : [
        {
            "bufferView" : 4,
            "mimeType" : "image/jpeg",
            "name" : "12248_Bird_v1_diff"
        }
    ],
    "accessors" : [
        {
            "bufferView" : 0,
            "componentType" : 5126,
            "count" : 9834,
            "max" : [
                14.22700023651123,
                56.805599212646484,
                20.123300552368164
            ],
            "min" : [
                -14.22700023651123,
                0.3366999924182892,
                -36.38399887084961
            ],
            "type" : "VEC3"
        },
        {
            "bufferView" : 1,
            "componentType" : 5126,
            "count" : 9834,
            "type" : "VEC3"
        },
        {
            "bufferView" : 2,
            "componentType" : 5126,
            "count" : 9834,
            "type" : "VEC2"
        },
        {
            "bufferView" : 3,
            "componentType" : 5123,
            "count" : 52512,
            "type" : "SCALAR"
        }
    ],
    "bufferViews" : [
        {
            "buffer" : 0,
            "byteLength" : 118008,
            "byteOffset" : 0
        },
        {
            "buffer" : 0,
            "byteLength" : 118008,
            "byteOffset" : 118008
        },
        {
            "buffer" : 0,
            "byteLength" : 78672,
            "byteOffset" : 236016
        },
        {
            "buffer" : 0,
            "byteLength" : 105024,
            "byteOffset" : 314688
        },
        {
            "buffer" : 0,
            "byteLength" : 719633,
            "byteOffset" : 419712
        }
    ],
    "samplers" : [
        {
            "magFilter" : 9729,
            "minFilter" : 9986
        }
    ],
    "buffers" : [
        {
            "byteLength" : 1139348,
            "uri" : "data:application/octet-stream;base64,"
        }
    ]
}
