{
    "asset" : {
        "generator" : "Khronos glTF Blender I/O v1.4.40",
        "version" : "2.0"
    },
    "scene" : 0,
    "scenes" : [
        {
            "name" : "Scene",
            "nodes" : [
                0
            ]
        }
    ],
    "nodes" : [
        {
            "mesh" : 0,
            "name" : "10050_RattleSnake_v4_L3",
            "rotation" : [
                0,
                -0.8944271802902222,
                0,
                0.4472135901451111
            ],
            "scale" : [
                0.05000000074505806,
                0.05000000074505806,
                0.05000000074505806
            ]
        }
    ],
    "materials" : [
        {
            "doubleSided" : true,
            "emissiveFactor" : [
                0.5879999995231628,
                0.5879999995231628,
                0.5879999995231628
            ],
            "name" : "10050_RattleSnake_v04",
            "pbrMetallicRoughness" : {
                "baseColorTexture" : {
                    "index" : 0,
                    "texCoord" : 0
                },
                "metallicFactor" : 0,
                "roughnessFactor" : 0.8945907354354858
            }
        }
    ],
    "meshes" : [
        {
            "name" : "10050_RattleSnake_v4_L3",
            "primitives" : [
                {
                    "attributes" : {
                        "POSITION" : 0,
                        "NORMAL" : 1,
                        "TEXCOORD_0" : 2
                    },
                    "indices" : 3,
                    "material" : 0
                }
            ]
        }
    ],
    "textures" : [
        {
            "sampler" : 0,
            "source" : 0
        }
    ],
    "images" : [
        {
            "bufferView" : 4,
            "mimeType" : "image/jpeg",
            "name" : "10050_RattleSnake_v04"
        }
    ],
    "accessors" : [
        {
            "bufferView" : 0,
            "componentType" : 5126,
            "count" : 16450,
            "max" : [
                16.79170036315918,
                18.104000091552734,
                17.090499877929688
            ],
            "min" : [
                -17.715599060058594,
                -0.3025999963283539,
                -18.44849967956543
            ],
            "type" : "VEC3"
        },
        {
            "bufferView" : 1,
            "componentType" : 5126,
            "count" : 16450,
            "type" : "VEC3"
        },
        {
            "bufferView" : 2,
            "componentType" : 5126,
            "count" : 16450,
            "type" : "VEC2"
        },
        {
            "bufferView" : 3,
            "componentType" : 5123,
            "count" : 94368,
            "type" : "SCALAR"
        }
    ],
    "bufferViews" : [
        {
            "buffer" : 0,
            "byteLength" : 197400,
            "byteOffset" : 0
        },
        {
            "buffer" : 0,
            "byteLength" : 197400,
            "byteOffset" : 197400
        },
        {
            "buffer" : 0,
            "byteLength" : 131600,
            "byteOffset" : 394800
        },
        {
            "buffer" : 0,
            "byteLength" : 188736,
            "byteOffset" : 526400
        },
        {
            "buffer" : 0,
            "byteLength" : 885576,
            "byteOffset" : 715136
        }
    ],
    "samplers" : [
        {
            "magFilter" : 9729,
            "minFilter" : 9986
        }
    ],
    "buffers" : [
        {
            "byteLength" : 1600712,
            "uri" : "data:application/octet-stream;base64,"
        }
    ]
}
