{
    "asset" : {
        "generator" : "Khronos glTF Blender I/O v1.4.40",
        "version" : "2.0"
    },
    "scene" : 0,
    "scenes" : [
        {
            "name" : "Scene",
            "nodes" : [
                0
            ]
        }
    ],
    "nodes" : [
        {
            "mesh" : 0,
            "name" : "10042_Sea_Turtle_V2_iterations-2",
            "rotation" : [
                0,
                -0.7071068286895752,
                0,
                0.7071068286895752
            ],
            "scale" : [
                0.024000000208616257,
                0.024000000208616257,
                0.024000000208616257
            ],
            "translation" : [
                0,
                0,
                -0.34999996423721313
            ]
        }
    ],
    "materials" : [
        {
            "doubleSided" : true,
            "name" : "_10042_Sea_Turtle_V2_iterations_0_10042_Sea_Turtle_V2_iteration",
            "pbrMetallicRoughness" : {
                "baseColorTexture" : {
                    "index" : 0,
                    "texCoord" : 0
                },
                "metallicFactor" : 0,
                "roughnessFactor" : 0.8945907354354858
            }
        }
    ],
    "meshes" : [
        {
            "name" : "10042_Sea_Turtle_V2_iterations-2",
            "primitives" : [
                {
                    "attributes" : {
                        "POSITION" : 0,
                        "NORMAL" : 1,
                        "TEXCOORD_0" : 2
                    },
                    "indices" : 3,
                    "material" : 0
                }
            ]
        }
    ],
    "textures" : [
        {
            "sampler" : 0,
            "source" : 0
        }
    ],
    "images" : [
        {
            "bufferView" : 4,
            "mimeType" : "image/jpeg",
            "name" : "10042_Sea_Turtle_V1_Diffuse"
        }
    ],
    "accessors" : [
        {
            "bufferView" : 0,
            "componentType" : 5126,
            "count" : 16410,
            "max" : [
                52.19559860229492,
                24.455799102783203,
                50.53010177612305
            ],
            "min" : [
                -49.82339859008789,
                -1.31850004196167,
                -51.16559982299805
            ],
            "type" : "VEC3"
        },
        {
            "bufferView" : 1,
            "componentType" : 5126,
            "count" : 16410,
            "type" : "VEC3"
        },
        {
            "bufferView" : 2,
            "componentType" : 5126,
            "count" : 16410,
            "type" : "VEC2"
        },
        {
            "bufferView" : 3,
            "componentType" : 5123,
            "count" : 93984,
            "type" : "SCALAR"
        }
    ],
    "bufferViews" : [
        {
            "buffer" : 0,
            "byteLength" : 196920,
            "byteOffset" : 0
        },
        {
            "buffer" : 0,
            "byteLength" : 196920,
            "byteOffset" : 196920
        },
        {
            "buffer" : 0,
            "byteLength" : 131280,
            "byteOffset" : 393840
        },
        {
            "buffer" : 0,
            "byteLength" : 187968,
            "byteOffset" : 525120
        },
        {
            "buffer" : 0,
            "byteLength" : 844665,
            "byteOffset" : 713088
        }
    ],
    "samplers" : [
        {
            "magFilter" : 9729,
            "minFilter" : 9986
        }
    ],
    "buffers" : [
        {
            "byteLength" : 1557756,
            "uri" : "data:application/octet-stream;base64,"
        }
    ]
}
